<?xml version="1.0" encoding="iso-8859-1"?>
<!-- Uploaded to: SVG Repo, www.svgrepo.com, Generator: SVG Repo Mixer Tools -->
<!DOCTYPE svg PUBLIC "-//W3C//DTD SVG 1.1//EN" "http://www.w3.org/Graphics/SVG/1.1/DTD/svg11.dtd">
<svg fill="#000000" version="1.1" id="Capa_1" xmlns="http://www.w3.org/2000/svg" xmlns:xlink="http://www.w3.org/1999/xlink" 
	 width="800px" height="800px" viewBox="0 0 28.545 28.546"
	 xml:space="preserve">
<g>
	<path d="M3.03,11.25h22.486v6.312H3.03V11.25z M13.941,8.377c-0.576,0-1.12-0.109-1.63-0.33c-0.508-0.221-0.948-0.516-1.319-0.888
		c-0.372-0.372-0.669-0.811-0.888-1.32c-0.222-0.509-0.33-1.052-0.33-1.63c0-0.577,0.108-1.12,0.33-1.63
		c0.219-0.509,0.516-0.949,0.888-1.321c0.371-0.371,0.812-0.674,1.319-0.908C12.821,0.117,13.365,0,13.941,0
		c0.579,0,1.121,0.117,1.63,0.351c0.51,0.234,0.95,0.537,1.32,0.908c0.373,0.372,0.668,0.812,0.889,1.32
		c0.221,0.51,0.33,1.053,0.33,1.63c0,0.578-0.109,1.122-0.33,1.63c-0.221,0.509-0.516,0.948-0.889,1.32
		c-0.37,0.372-0.812,0.667-1.32,0.888C15.062,8.268,14.52,8.377,13.941,8.377z M13.941,20.169c0.579,0,1.121,0.11,1.63,0.331
		c0.51,0.221,0.95,0.516,1.32,0.887c0.373,0.371,0.668,0.813,0.889,1.321c0.221,0.509,0.33,1.051,0.33,1.63
		c0,0.577-0.109,1.121-0.33,1.63s-0.516,0.948-0.889,1.319c-0.37,0.372-0.812,0.674-1.32,0.908s-1.051,0.351-1.63,0.351
		c-0.576,0-1.12-0.116-1.63-0.351c-0.508-0.233-0.948-0.536-1.319-0.908c-0.372-0.371-0.669-0.811-0.888-1.319
		c-0.222-0.509-0.33-1.053-0.33-1.63c0-0.579,0.108-1.121,0.33-1.63c0.219-0.509,0.516-0.951,0.888-1.321
		c0.371-0.371,0.812-0.667,1.319-0.887C12.821,20.279,13.365,20.169,13.941,20.169z"/>
</g>
</svg>